# xmcd
#
# Track frame offsets: 
#        150
#        25729
#        47821
#        54207
#        61216
#
# Disc length: 1156 seconds
#
# Revision: 6
# Processed by: cddbd v1.5.2PL0 Copyright (c) Steve Scherf et al.
# Submitted via: ExactAudioCopy v1.0b3
#
DISCID=36048205
DTITLE=supercell - 君の知らない物語
DYEAR=2009
DGENRE=Anime
TTITLE0=君の知らない物語
TTITLE1=LOVE and ROLL
TTITLE2=theme of "CENCOROLL"
TTITLE3=君の知らない物語 -TV Edit-
TTITLE4=君の知らない物語 -instrumental-
EXTD=YEAR: 2009
EXTT0=
EXTT1=
EXTT2=
EXTT3=
EXTT4=
PLAYORDER=
